<svg width="24" height="24" viewBox="0 0 24 24" fill="none" xmlns="http://www.w3.org/2000/svg">
<path d="M19.6861 3.35999H4.31362C4.06067 3.35999 3.81808 3.46047 3.63921 3.63934C3.46035 3.8182 3.35986 4.06079 3.35986 4.31375V19.6865C3.35993 19.9394 3.46044 20.1819 3.6393 20.3607C3.81816 20.5395 4.06071 20.64 4.31362 20.64H12.5895V13.9483H10.3376V11.3405H12.5895V9.4171C12.5895 7.1851 13.9527 5.96999 15.9438 5.96999C16.8975 5.96999 17.7171 6.04079 17.9562 6.07271V8.40526L16.5752 8.40599C15.4923 8.40599 15.2828 8.92054 15.2828 9.67558V11.3407H17.8652L17.529 13.9485H15.2828V20.64H19.6863C19.9393 20.6399 20.1818 20.5394 20.3606 20.3605C20.5394 20.1817 20.6399 19.9391 20.6399 19.6862V4.31375C20.6399 4.06079 20.5394 3.8182 20.3605 3.63934C20.1816 3.46047 19.9391 3.35999 19.6861 3.35999Z" fill="white"/>
</svg>
