<svg width="92" height="92" viewBox="0 0 92 92" fill="none" xmlns="http://www.w3.org/2000/svg">
<path d="M78 23.5H14C10.4 23.5 7.5 20.6 7.5 17C7.5 13.4 10.4 10.5 14 10.5H78C81.6 10.5 84.5 13.4 84.5 17C84.5 20.6 81.6 23.5 78 23.5ZM84.5 46C84.5 42.4 81.6 39.5 78 39.5H14C10.4 39.5 7.5 42.4 7.5 46C7.5 49.6 10.4 52.5 14 52.5H78C81.6 52.5 84.5 49.6 84.5 46ZM84.5 75C84.5 71.4 81.6 68.5 78 68.5H14C10.4 68.5 7.5 71.4 7.5 75C7.5 78.6 10.4 81.5 14 81.5H78C81.6 81.5 84.5 78.6 84.5 75Z" fill="white"/>
</svg>
