<svg width="24" height="24" viewBox="0 0 24 24" fill="none" xmlns="http://www.w3.org/2000/svg">
<path d="M18 9.75H16.5C16.4994 9.15345 16.2622 8.5815 15.8403 8.15967C15.4185 7.73784 14.8466 7.5006 14.25 7.5V6C15.2442 6.00119 16.1973 6.39666 16.9003 7.09966C17.6033 7.80267 17.9988 8.7558 18 9.75Z" fill="white"/>
<path d="M20.9998 9.75001H19.4998C19.4982 8.35811 18.9445 7.02367 17.9603 6.03945C16.9761 5.05523 15.6417 4.50159 14.2498 4.50001V3.00001C16.0394 3.00199 17.7551 3.71379 19.0205 4.97923C20.286 6.24467 20.9978 7.9604 20.9998 9.75001V9.75001ZM15.2495 16.1115L16.9295 14.4315C17.1544 14.2066 17.4403 14.0526 17.7519 13.9886C18.0635 13.9246 18.3869 13.9534 18.6823 14.0715L20.7283 14.8905C21.0298 15.0112 21.2883 15.2194 21.4704 15.4884C21.6525 15.7573 21.7498 16.0747 21.7498 16.3995V20.1203C21.7503 20.3414 21.7057 20.5603 21.6187 20.7636C21.5316 20.9669 21.4041 21.1504 21.2437 21.3026C21.0833 21.4549 20.8936 21.5729 20.6861 21.6493C20.4785 21.7257 20.2576 21.7589 20.0368 21.747C5.69527 20.8545 2.79877 8.70751 2.26102 4.05601C2.23498 3.8286 2.25737 3.59826 2.32673 3.38013C2.39609 3.16201 2.51085 2.96104 2.66345 2.79044C2.81605 2.61984 3.00304 2.48349 3.21212 2.39034C3.4212 2.29719 3.64763 2.24937 3.87652 2.25001H7.53127C7.85607 2.25 8.17343 2.3473 8.4424 2.52938C8.71137 2.71146 8.91961 2.96995 9.04027 3.27151L9.85852 5.31751C9.9766 5.61284 10.0054 5.93632 9.94144 6.24788C9.87745 6.55944 9.72345 6.84538 9.49852 7.07026L7.81852 8.75026C7.81852 8.75026 8.75002 15.2993 15.2495 16.1115Z" fill="white"/>
</svg>
